<mxfile host="65bd71144e">
    <diagram id="_1-M2GPFu1yu-nTdI3Md" name="Page-1">
        <mxGraphModel dx="1428" dy="878" grid="1" gridSize="10" guides="1" tooltips="1" connect="1" arrows="1" fold="1" page="1" pageScale="1" pageWidth="1169" pageHeight="827" background="#E6E6E6" math="0" shadow="0">
            <root>
                <mxCell id="0"/>
                <mxCell id="1" parent="0"/>
                <mxCell id="7" value="&lt;font face=&quot;Comic Sans MS&quot; size=&quot;1&quot; color=&quot;#ff0000&quot;&gt;&lt;i&gt;&lt;b style=&quot;font-size: 26px;&quot;&gt;Text&lt;/b&gt;&lt;/i&gt;&lt;/font&gt;" style="text;strokeColor=none;fillColor=none;html=1;align=center;verticalAlign=middle;whiteSpace=wrap;rounded=0;" vertex="1" parent="1">
                    <mxGeometry width="100" height="60" as="geometry"/>
                </mxCell>
            </root>
        </mxGraphModel>
    </diagram>
</mxfile>